<svg width="465" height="464" viewBox="0 0 465 464" fill="none" xmlns="http://www.w3.org/2000/svg">
<g clip-path="url(#clip0)">
<path d="M391.863 422.878L391.137 416.342C390.85 413.757 388.521 411.893 385.936 412.18L385.529 412.225L378.502 356.011C376.973 343.783 368.559 333.519 356.868 329.622L317.821 316.606C312.459 314.818 306.577 315.956 302.442 319.48L290.94 315.646C284.406 313.468 280 307.354 280 300.467V274.665L314.461 260.306C332.349 252.855 344 235.378 344 216V208C357.255 208 368 197.255 368 184C368 178.435 366.1 173.316 362.921 169.245C369.876 151.701 385.637 101.46 368 40C368 40 365.137 37.898 359.79 34.74C358.341 16.289 352 8 352 8L322.801 17.733C297.358 8.546 261.586 0 216.001 0C216.001 0 210.751 5.5 200.001 8C200.001 8 172.751 2 144.001 0L128.001 40C128.001 40 88.001 39.667 88.001 88C88.001 105.727 97.884 149.932 102.106 168.013C98.31 172.258 96 177.858 96 184C96 197.255 106.745 208 120 208V216C120 235.377 131.651 252.854 149.538 260.308L184 274.667V300.468C184 307.355 179.593 313.469 173.06 315.647L161.558 319.481C157.423 315.957 151.541 314.819 146.179 316.607L107.132 329.623C95.441 333.52 87.027 343.784 85.498 356.012L78.471 412.226L78.064 412.181C75.478 411.894 73.15 413.757 72.862 416.343L72.136 422.879C71.849 425.464 73.712 427.793 76.297 428.08L88 429.38V448C88 456.836 95.163 464 104 464H360C368.837 464 376 456.836 376 448V429.379L387.702 428.079C390.287 427.792 392.151 425.463 391.863 422.878Z" fill="#FDC88E"/>
<path d="M280 274H184V300.468C184 306.227 180.814 311.299 175.983 314.127C243.077 325.871 280 274 280 274Z" fill="#F5B97A"/>
<path d="M344 160V144C344 121.909 326.091 104 304 104H160C137.909 104 120 121.909 120 144V160C106.745 160 96 170.745 96 184C96 197.255 106.745 208 120 208V216C120 235.377 131.651 252.854 149.538 260.308L201.229 281.846C210.98 285.909 221.438 288 232 288C242.562 288 253.019 285.908 262.769 281.846L314.463 260.307C332.349 252.855 344 235.378 344 216V208C357.255 208 368 197.255 368 184C368 170.745 357.255 160 344 160Z" fill="#FFD7A3"/>
<path d="M320 464.001V424.001H387L378.501 356.012C376.972 343.784 368.558 333.52 356.867 329.623L317.82 316.607C311.02 314.34 303.37 316.761 299.529 322.813C285.349 345.157 260.424 360 232.001 360C203.578 360 178.652 345.156 164.471 322.812C160.63 316.76 152.98 314.339 146.18 316.606L107.133 329.622C95.442 333.519 87.028 343.783 85.499 356.011L77.89 416.883L144.001 417V464.001H320Z" fill="#FF6473"/>
<path d="M176.001 192C171.601 192 168.001 188.4 168.001 184V176C168.001 171.6 171.601 168 176.001 168C180.401 168 184.001 171.6 184.001 176V184C184.001 188.4 180.4 192 176.001 192Z" fill="#623F33"/>
<path d="M288 192C283.6 192 280 188.4 280 184V176C280 171.6 283.6 168 288 168C292.4 168 296 171.6 296 176V184C296 188.4 292.4 192 288 192Z" fill="#623F33"/>
<path d="M232.001 248.219C217.778 248.219 204.474 244.719 195.501 238.614C191.849 236.13 190.899 231.153 193.388 227.501C195.868 223.853 200.849 222.903 204.501 225.388C210.79 229.665 221.071 232.22 232.001 232.22C242.931 232.22 253.212 229.665 259.501 225.388C263.161 222.896 268.13 223.849 270.614 227.501C273.102 231.153 272.153 236.13 268.501 238.614C259.529 244.719 246.224 248.219 232.001 248.219Z" fill="#E4B07B"/>
<path d="M161.997 243.723C155.515 236.773 152.002 227.602 152.002 218.098V147.492C174.081 135.549 238.601 104 304 104H160C157.246 104 154.579 104.321 152 104.881V104.806C133.743 108.513 120 124.649 120 144V160C106.745 160 96 170.745 96 184C96 197.255 106.745 208 120 208V216C120 235.378 131.651 252.855 149.538 260.308L201.228 281.846C203.758 282.9 206.34 283.808 208.955 284.595C186.111 267.883 170.906 253.274 161.997 243.723Z" fill="#FDC88E"/>
<path d="M144.001 430.04V411.934C144.001 404.237 141.227 396.799 136.188 390.981L92.169 340.168C88.617 344.665 86.239 350.098 85.5 356.011L77.144 422.858C89.867 423.622 123.711 427.587 144.001 430.04Z" fill="#F05467"/>
<path d="M144.001 419.507L78.065 412.181C75.479 411.894 73.151 413.757 72.863 416.342L72.137 422.878C71.85 425.463 73.713 427.792 76.298 428.079L144.001 435.602V419.507Z" fill="#BD445A"/>
<path d="M320 430.04V411.934C320 404.237 322.774 396.799 327.813 390.981L371.832 340.168C375.384 344.665 377.762 350.098 378.501 356.011L386.857 422.858C374.134 423.622 340.289 427.587 320 430.04Z" fill="#F05467"/>
<path d="M320 419.507L385.936 412.181C388.522 411.894 390.85 413.757 391.138 416.342L391.864 422.878C392.151 425.463 390.288 427.792 387.703 428.079L320 435.602V419.507Z" fill="#BD445A"/>
<path d="M368 40C368 40 365.137 37.898 359.79 34.74C358.341 16.289 352 8 352 8L322.801 17.733C297.358 8.546 261.586 0 216.001 0C216.001 0 210.751 5.5 200.001 8C200.001 8 172.751 2 144.001 0L128.001 40C128.001 40 88.001 39.667 88.001 88C88.001 105.761 97.922 150.104 102.131 168.12C106.527 163.176 112.865 160 120.001 160V144C120.001 122.107 137.605 104.375 159.422 104.058C153.28 117.382 152.001 128 152.001 128C172.001 114.666 198.001 104 232.001 104H304.001C326.092 104 344.001 121.909 344.001 144V160C351.709 160 358.492 163.698 362.883 169.346C369.817 151.89 385.669 101.572 368 40Z" fill="#9D6E48"/>
<path d="M352 8L322.801 17.733C297.358 8.546 261.586 0 216.001 0C216.001 0 210.751 5.5 200.001 8C200.001 8 172.751 2 144.001 0L128.001 40C128.001 40 88.001 39.667 88.001 88C88.001 105.761 97.922 150.104 102.131 168.12C106.527 163.176 112.865 160 120.001 160V144C120.001 123.119 136.06 106.171 156.469 104.356C154.324 110.322 152.001 118.823 152.001 128C183.501 88 228.243 73.569 264.001 64C299.501 54.5 304.001 40 304.001 40C304.001 40 339 38 352 8Z" fill="#8D5F3D"/>
</g>
<defs>
<clipPath id="clip0">
<rect width="464.001" height="464.001" fill="white"/>
</clipPath>
</defs>
</svg>
