<svg width="26" height="26" viewBox="0 0 26 26" fill="none" xmlns="http://www.w3.org/2000/svg">
<g clip-path="url(#clip0)">
<path d="M25.3675 18.75C25.3372 18.6848 25.309 18.6307 25.2828 18.5873C24.849 17.8061 24.0201 16.8473 22.7966 15.7105L22.7708 15.6844L22.7578 15.6717L22.7447 15.6586H22.7316C22.1763 15.1292 21.8247 14.7733 21.6774 14.5911C21.408 14.2439 21.3476 13.8926 21.4949 13.5366C21.5989 13.2676 21.9897 12.6995 22.6664 11.8316C23.0223 11.3716 23.3042 11.003 23.5123 10.7253C25.0137 8.7293 25.6646 7.45385 25.4649 6.89842L25.3873 6.76862C25.3352 6.69048 25.2007 6.619 24.9841 6.5538C24.7669 6.48874 24.4893 6.47798 24.1507 6.52134L20.4021 6.54724C20.3414 6.52572 20.2547 6.52772 20.1417 6.5538C20.0288 6.57988 19.9724 6.59296 19.9724 6.59296L19.9072 6.62556L19.8554 6.66472C19.812 6.69062 19.7642 6.73616 19.7121 6.80127C19.6603 6.86614 19.6169 6.94228 19.5823 7.02904C19.1742 8.07904 18.7101 9.05527 18.1894 9.95769C17.8683 10.4958 17.5734 10.9621 17.3041 11.357C17.0351 11.7517 16.8095 12.0426 16.6274 12.229C16.4451 12.4156 16.2805 12.5651 16.1327 12.678C15.9851 12.791 15.8724 12.8387 15.7944 12.8212C15.7162 12.8038 15.6426 12.7865 15.5729 12.7691C15.4515 12.691 15.3538 12.5847 15.2802 12.4502C15.2063 12.3157 15.1565 12.1465 15.1305 11.9425C15.1046 11.7385 15.0892 11.5629 15.0849 11.4154C15.0808 11.268 15.0827 11.0595 15.0915 10.7905C15.1005 10.5214 15.1046 10.3393 15.1046 10.2438C15.1046 9.91401 15.111 9.55608 15.1239 9.16993C15.137 8.78378 15.1476 8.47782 15.1565 8.25242C15.1654 8.02679 15.1695 7.78808 15.1695 7.53642C15.1695 7.28476 15.1542 7.08739 15.1239 6.94415C15.094 6.80108 15.0481 6.66222 14.9876 6.52759C14.9267 6.39309 14.8376 6.28906 14.7207 6.2152C14.6036 6.14143 14.458 6.0829 14.2847 6.0394C13.8247 5.93532 13.239 5.87901 12.5273 5.87026C10.9134 5.85294 9.87631 5.95716 9.41639 6.18278C9.23417 6.27811 9.06927 6.40837 8.92183 6.57313C8.76559 6.76411 8.74379 6.86833 8.85659 6.88547C9.37732 6.96348 9.74597 7.15008 9.96293 7.4451L10.0411 7.60143C10.1019 7.71422 10.1627 7.91391 10.2234 8.20022C10.2841 8.48653 10.3233 8.80324 10.3405 9.15019C10.3838 9.78376 10.3838 10.3261 10.3405 10.7773C10.2971 11.2286 10.256 11.58 10.2169 11.8316C10.1777 12.0833 10.1192 12.2872 10.0411 12.4434C9.96293 12.5996 9.91092 12.695 9.88484 12.7297C9.8588 12.7643 9.8371 12.7862 9.81987 12.7948C9.70708 12.838 9.58977 12.86 9.46837 12.86C9.34678 12.86 9.19934 12.7992 9.02582 12.6776C8.85235 12.5561 8.67231 12.3891 8.4857 12.1765C8.2991 11.9638 8.08866 11.6666 7.85427 11.2848C7.62008 10.9031 7.37708 10.4518 7.12542 9.9312L6.9172 9.55362C6.78704 9.31071 6.60924 8.95702 6.38361 8.49286C6.15785 8.02852 5.9583 7.57936 5.78482 7.14548C5.71548 6.96325 5.61131 6.82452 5.47248 6.72905L5.40733 6.68989C5.36402 6.65524 5.2945 6.61845 5.19912 6.57924C5.10361 6.54008 5.00395 6.51199 4.89973 6.49472L1.33321 6.52061C0.968763 6.52061 0.721479 6.60318 0.591273 6.76808L0.539162 6.84608C0.51313 6.88953 0.5 6.95892 0.5 7.05443C0.5 7.1499 0.526032 7.26707 0.578142 7.4058C1.09879 8.62945 1.66498 9.80957 2.27671 10.9463C2.88845 12.0831 3.42004 12.9988 3.87116 13.6926C4.32237 14.3869 4.78228 15.0421 5.25091 15.6581C5.71954 16.2742 6.02974 16.6691 6.18151 16.8426C6.33346 17.0164 6.45282 17.1463 6.53958 17.233L6.86505 17.5454C7.07331 17.7537 7.37913 18.0032 7.78265 18.2938C8.18627 18.5846 8.6331 18.8709 9.12338 19.1532C9.61375 19.435 10.1842 19.6649 10.8351 19.8428C11.4859 20.0208 12.1194 20.0923 12.7355 20.0578H14.2325C14.536 20.0316 14.766 19.9361 14.9224 19.7714L14.9742 19.7061C15.009 19.6543 15.0416 19.5739 15.0717 19.4656C15.1021 19.3571 15.1173 19.2376 15.1173 19.1076C15.1084 18.7346 15.1368 18.3983 15.2017 18.099C15.2666 17.7997 15.3405 17.5741 15.4232 17.4222C15.5059 17.2703 15.5992 17.1422 15.703 17.0384C15.807 16.9343 15.8811 16.8712 15.9246 16.8495C15.9679 16.8277 16.0024 16.8129 16.0284 16.804C16.2367 16.7346 16.4818 16.8018 16.7641 17.0059C17.0461 17.2098 17.3107 17.4616 17.5582 17.7609C17.8055 18.0604 18.1026 18.3965 18.4497 18.7695C18.7969 19.1427 19.1006 19.4202 19.3608 19.6027L19.621 19.7589C19.7948 19.8631 20.0205 19.9585 20.2982 20.0453C20.5754 20.132 20.8183 20.1537 21.0269 20.1104L24.359 20.0584C24.6886 20.0584 24.945 20.0038 25.1269 19.8955C25.3092 19.7871 25.4175 19.6676 25.4524 19.5376C25.4872 19.4075 25.4891 19.2599 25.459 19.0948C25.4282 18.9302 25.3977 18.8151 25.3675 18.75Z" fill="white"/>
</g>
<defs>
<clipPath id="clip0">
<rect width="25" height="25" fill="white" transform="translate(0.5 0.5)"/>
</clipPath>
</defs>
</svg>
